<?xml version="1.0" encoding="UTF-8"?>
<svg width="20px" height="17px" viewBox="0 0 20 17" version="1.1" xmlns="http://www.w3.org/2000/svg" xmlns:xlink="http://www.w3.org/1999/xlink">
    <title>Fill 1</title>
    <g id="Page-1" stroke="none" stroke-width="1" fill="none" fill-rule="evenodd">
        <g id="Menu" transform="translate(-1022.000000, -791.000000)" fill="#FFFFFF">
            <g id="Group-15" transform="translate(1022.000000, 789.000000)">
                <path d="M19.962,4.29486 C19.3254,4.58226 18.6246,4.75746 17.9382,4.87326 C18.264,4.81806 18.7446,4.22766 18.9366,3.98886 C19.23,3.62466 19.4742,3.20946 19.611,2.76126 C19.6284,2.72706 19.6416,2.68266 19.6068,2.65626 C19.563,2.63886 19.5342,2.64786 19.4994,2.66526 C18.7326,3.07626 17.9394,3.37446 17.0958,3.58506 C17.025,3.60306 16.974,3.58506 16.9296,3.54126 C16.8594,3.46206 16.794,3.38766 16.7196,3.32646 C16.3644,3.02466 15.984,2.78766 15.5544,2.61246 C14.991,2.38266 14.3754,2.28546 13.7688,2.32506 C13.1778,2.36346 12.5982,2.53026 12.0744,2.80386 C11.5488,3.07866 11.0796,3.45966 10.7064,3.92046 C10.3212,4.39686 10.0362,4.95906 9.8904,5.55606 C9.7494,6.13146 9.7608,6.70026 9.8472,7.28226 C9.8598,7.37886 9.8514,7.39146 9.7644,7.37886 C6.462,6.88686 3.7248,5.70546 1.5024,3.17346 C1.4058,3.06366 1.3536,3.06366 1.2744,3.18246 C0.3024,4.63926 0.7746,6.98106 1.989,8.13186 C2.1504,8.28486 2.3172,8.43846 2.4966,8.57886 C2.4312,8.59206 1.623,8.50446 0.9024,8.13186 C0.8058,8.07066 0.7572,8.10606 0.7494,8.21526 C0.7404,8.37246 0.7536,8.51766 0.7746,8.68806 C0.9618,10.16586 1.9848,11.53266 3.3858,12.06546 C3.552,12.13506 3.7362,12.19686 3.9162,12.22746 C3.597,12.29766 3.2676,12.34746 2.352,12.27606 C2.238,12.25386 2.1948,12.31086 2.238,12.42006 C2.9262,14.29566 4.4112,14.85366 5.5236,15.17106 C5.6724,15.19746 5.8218,15.19746 5.9706,15.23226 C5.9616,15.24546 5.9526,15.24546 5.9442,15.25866 C5.5752,15.82086 4.2966,16.23966 3.7002,16.44786 C2.6178,16.82646 1.4382,16.99686 0.2934,16.88346 C0.1098,16.85706 0.072,16.85886 0.0222,16.88346 C-0.0282,16.91466 0.0156,16.95846 0.0744,17.00646 C0.3066,17.15946 0.5436,17.29566 0.7842,17.42706 C1.5114,17.81226 2.2692,18.11886 3.0618,18.33786 C7.155,19.46826 11.766,18.63786 14.8392,15.58386 C17.2524,13.18566 18.099,9.87966 18.099,6.56766 C18.099,6.43806 18.2514,6.36666 18.3432,6.29886 C18.9708,5.82666 19.47,5.26206 19.9386,4.63206 C20.0436,4.48986 20.037128,4.36386 20.037128,4.31226 L20.037128,4.29486 C20.037128,4.24206 20.0436,4.25766 19.962,4.29486" id="Fill-1"></path>
            </g>
        </g>
    </g>
</svg>