<?xml version="1.0" encoding="UTF-8"?>
<svg width="11px" height="21px" viewBox="0 0 11 21" version="1.1" xmlns="http://www.w3.org/2000/svg" xmlns:xlink="http://www.w3.org/1999/xlink">
    <title>Fill 11</title>
    <g id="Page-1" stroke="none" stroke-width="1" fill="none" fill-rule="evenodd">
        <g id="Menu" transform="translate(-1058.000000, -789.000000)" fill="#FFFFFF">
            <g id="Group-15" transform="translate(1022.000000, 789.000000)">
                <path d="M38.7372,10.64994 L38.7372,20.61294 C38.7372,20.75694 38.853,20.87274 38.9964,20.87274 L42.6966,20.87274 C42.84,20.87274 42.9558,20.75694 42.9558,20.61294 L42.9558,10.48734 L45.6384,10.48734 C45.7734,10.48734 45.8856,10.38414 45.897,10.24974 L46.155,7.19874 C46.1682,7.04754 46.0488,6.91734 45.8964,6.91734 L42.9558,6.91734 L42.9558,4.75314 C42.9558,4.24554 43.3674,3.83454 43.875,3.83454 L45.942,3.83454 C46.0854,3.83454 46.2012,3.71814 46.2012,3.57474 L46.2012,0.52374 C46.2012,0.38094 46.0854,0.26394 45.942,0.26394 L42.4488,0.26394 C40.3992,0.26394 38.7372,1.92594 38.7372,3.97614 L38.7372,6.91734 L36.8868,6.91734 C36.744,6.91734 36.627,7.03374 36.627,7.17714 L36.627,10.22814 C36.627,10.37094 36.744,10.48734 36.8868,10.48734 L38.7372,10.48734 L38.7372,10.64994 Z" id="Fill-11"></path>
            </g>
        </g>
    </g>
</svg>