<?xml version="1.0" encoding="UTF-8"?>
<svg width="23px" height="22px" viewBox="0 0 23 22" version="1.1" xmlns="http://www.w3.org/2000/svg" xmlns:xlink="http://www.w3.org/1999/xlink">
    <title>Fill 13</title>
    <g id="Page-1" stroke="none" stroke-width="1" fill="none" fill-rule="evenodd">
        <g id="Menu" transform="translate(-1084.000000, -789.000000)" fill="#FFFFFF">
            <g id="Group-15" transform="translate(1022.000000, 789.000000)">
                <path d="M82.35264,15.02166 C82.35264,17.47806 80.36184,19.46886 77.90544,19.46886 L69.35964,19.46886 C66.90324,19.46886 64.91244,17.47806 64.91244,15.02166 L64.91244,6.47526 C64.91244,4.01886 66.90324,2.02806 69.35964,2.02806 L77.90544,2.02806 C80.36184,2.02806 82.35264,4.01886 82.35264,6.47526 L82.35264,15.02166 Z M84.38064,6.47526 C84.38064,2.89926 81.48204,6e-05 77.90544,6e-05 L69.35964,6e-05 C65.78304,6e-05 62.88444,2.89926 62.88444,6.47526 L62.88444,15.02166 C62.88444,18.59766 65.78304,21.49686 69.35964,21.49686 L77.90544,21.49686 C81.48204,21.49686 84.38064,18.59766 84.38064,15.02166 L84.38064,6.47526 Z M73.66884,14.28786 C71.79384,14.28786 70.26804,12.76206 70.26804,10.88706 C70.26804,9.01206 71.79384,7.48626 73.66884,7.48626 C75.54384,7.48626 77.06904,9.01206 77.06904,10.88706 C77.06904,12.76206 75.54384,14.28786 73.66884,14.28786 L73.66884,14.28786 Z M73.66884,5.57886 C70.74144,5.57886 68.36064,7.95966 68.36064,10.88706 C68.36064,13.81446 70.74144,16.19586 73.66884,16.19586 C76.59624,16.19586 78.97764,13.81446 78.97764,10.88706 C78.97764,7.95966 76.59624,5.57886 73.66884,5.57886 L73.66884,5.57886 Z M79.28784,3.95826 C78.59004,3.95826 78.02364,4.52346 78.02364,5.22126 C78.02364,5.91966 78.59004,6.48486 79.28784,6.48486 C79.98564,6.48486 80.55144,5.91966 80.55144,5.22126 C80.55144,4.52346 79.98564,3.95826 79.28784,3.95826 L79.28784,3.95826 Z" id="Fill-13"></path>
            </g>
        </g>
    </g>
</svg>