<?xml version="1.0" encoding="UTF-8"?>
<svg width="34px" height="35px" viewBox="0 0 34 35" version="1.1" xmlns="http://www.w3.org/2000/svg" xmlns:xlink="http://www.w3.org/1999/xlink">
    <title>icon</title>
    <g id="Page-1" stroke="none" stroke-width="1" fill="none" fill-rule="evenodd">
        <g id="Menu" transform="translate(-1381.000000, -28.000000)" fill="#FFFFFF" fill-rule="nonzero">
            <g id="icon" transform="translate(1381.000000, 28.000000)">
                <path d="M23.2871095,20.2080078 C27.375,14.435547 26.0078125,6.44238275 20.2353515,2.35546875 C14.4628905,-1.73144525 6.4697265,-0.3652345 2.3828125,5.408203 C-1.7041015,11.180664 -0.3378905,19.1728515 5.435547,23.2597655 C9.555664,26.1767578 15.0029297,26.4013673 19.3486328,23.834961 L28.7910155,33.220703 C29.810547,34.2939453 31.506836,34.336914 32.580078,33.3173828 C33.6533203,32.298828 33.696289,30.602539 32.6777345,29.529297 C32.6455078,29.4951173 32.6142578,29.4638673 32.580078,29.4316405 L23.2871095,20.2080078 Z M12.8271485,21.0830079 C8.265625,21.0839845 4.56738275,17.388672 4.56445281,12.8271485 C4.5634765,8.265625 8.258789,4.56738275 12.821289,4.56542897 C17.376953,4.5634765 21.0732422,8.25292975 21.0820436,12.8085938 C21.0898438,17.3710938 17.3964845,21.0751953 12.8330077,21.0830079 C12.8310547,21.0830079 12.830078,21.0830079 12.8271485,21.0830079 Z" id="Shape"></path>
            </g>
        </g>
    </g>
</svg>