<?xml version="1.0" encoding="UTF-8"?>
<svg width="135px" height="35px" viewBox="0 0 135 35" version="1.1" xmlns="http://www.w3.org/2000/svg" xmlns:xlink="http://www.w3.org/1999/xlink">
    <title>logo_webpay_plus</title>
    <g id="Page-1" stroke="none" stroke-width="1" fill="none" fill-rule="evenodd">
        <g id="Checkout-4" transform="translate(-165.000000, -355.000000)">
            <g id="logo_webpay_plus" transform="translate(165.000000, 356.000000)">
                <g id="Group" transform="translate(0.000000, 7.000000)" fill="#FFFFFF">
                    <polygon id="Path" points="8.73823077 23.2681983 12.0406884 11.9970863 15.3099964 23.2681983 17.8554007 23.2681983 24.1155536 5.87464359 19.7474157 5.87464359 16.5143438 16.4849827 13.7255798 5.87464359 10.4592551 5.87464359 7.60120981 16.4849827 4.43741925 5.87464359 0 5.87464359 6.22690214 23.2681983"></polygon>
                    <path d="M39.2827655,14.3280029 C39.2827655,9.31860886 35.2574337,5.17931327 30.3726188,5.17931327 C25.38424,5.17931327 21.3237005,9.38876633 21.3237005,14.6065531 C21.3237005,19.7561579 25.3500633,23.8598535 30.4067955,23.8598535 C34.1224721,23.8598535 37.5977723,21.2859867 38.6634526,17.7719682 L34.1224721,17.7719682 C33.1924704,19.3017997 31.954976,20.0326231 30.270086,20.0326231 C28.170946,20.0326231 26.2447516,18.5038341 25.6948231,16.4149295 L39.0414638,16.4149295 C39.2485888,15.407534 39.2827655,14.9531758 39.2827655,14.3280029 Z M25.5561573,13.0756818 C26.1060858,10.6054901 28.0664569,9.00550252 30.4409722,9.00550252 C32.8154902,9.00550252 34.6733259,10.5709313 35.2574337,13.0756818 L25.5561573,13.0756818 Z" id="Shape"></path>
                    <path d="M42.6093118,23.2681983 L42.6093118,21.1803362 C44.2962639,23.0598082 46.0524947,23.8598535 48.389846,23.8598535 C53.2073359,23.8598535 56.9561635,19.8243372 56.9561635,14.6065531 C56.9561635,9.42228396 53.1048057,5.28402953 48.3214926,5.28402953 C46.1540996,5.28402953 44.2962639,6.04847615 42.9561336,7.47463118 L42.9561336,0.0652029197 L38.8263101,0.0652029197 L38.8263101,23.2681996 L42.6093118,23.2681996 L42.6093118,23.2681983 Z M47.8048129,9.10917765 C50.6961084,9.10917765 52.8293247,11.4410311 52.8293247,14.5373312 C52.8293247,17.7363709 50.7644671,20.0326231 47.8751226,20.0326231 C44.9165048,20.0326231 42.6806526,17.6337356 42.6806526,14.4327205 C42.6806526,11.4755886 44.9496504,9.10917765 47.8048129,9.10917765 Z" id="Shape"></path>
                </g>
                <path d="M61.1233589,34 L61.1233589,26.8260053 C62.874526,28.4430754 64.146487,28.9814457 66.3779039,28.9814457 C71.1871562,28.9814457 75,24.9740735 75,19.9221739 C75,14.8733721 71.2549668,11 66.412861,11 C64.0437193,11 62.1537781,11.8751222 60.7799904,13.5587794 L60.7799904,11.5726435 L57,11.5726435 L57,34 L61.1233589,34 Z M65.8987086,14.7039629 C68.6462788,14.7039629 70.878642,17.0600913 70.878642,19.9896889 C70.878642,22.9204239 68.6462788,25.2785153 65.8637461,25.2785153 C63.0812188,25.2785153 60.8488555,22.9527352 60.8488555,19.9896889 C60.8488555,17.02778 63.0812188,14.7039629 65.8987086,14.7039629 Z" id="Shape" fill="#FCC030"></path>
                <path d="M87.2512149,11.5732343 L87.2512149,13.6955567 C85.9896389,12.1121602 83.6708021,11 81.5244116,11 C76.6825248,11 73,14.8430591 73,19.8981042 C73,25.1236648 76.5110177,29 81.2845562,29 C83.3972904,29 85.9896389,27.8545636 87.2512149,26.3700655 L87.2512149,28.426763 L91,28.426763 L91,11.5732343 L87.2512149,11.5732343 Z M82.1367558,25.2932487 C79.3075847,25.2932487 77.0907524,23.0003087 77.0907524,20.1019967 C77.0907524,17.0339998 79.2718404,14.7077849 82.1367558,14.7077849 C85.034388,14.7077849 87.1491083,16.9310716 87.1491083,19.9313803 C87.1491083,23.0346199 85.034388,25.2932487 82.1367558,25.2932487 Z" id="Shape" fill="#FCC030"></path>
                <polygon id="Path" fill="#FCC030" points="98.3629066 34 108 12 103.416449 12 99.3657618 22.5866252 95.5857113 12 91 12 97.1246129 26.9400221 94.0447653 34"></polygon>
                <g id="Group" transform="translate(109.000000, 0.000000)">
                    <g>
                        <path d="M0.0990834073,12.2532185 C0.0990834073,12.0139324 0.414289449,11.1522972 0.593640474,10.9697958 L11.0516594,0.267238002 C11.3827076,-0.0693191115 11.9165955,-0.0693191115 12.2475401,0.267238002 L24.1959857,12.4965528 C24.5279457,12.8350821 24.5279457,13.3795738 24.1959857,13.718103 L13.7388681,24.4196224 C13.5261439,24.6355514 12.6198463,24.8535544 12.4129658,24.8535544 L0.944250464,24.8535544 C0.47733687,24.8535544 0.0990834073,24.4662355 0.0990834073,23.9898438 L0.0990834073,12.2532185 Z" id="Path" stroke="#FFFFFF" stroke-width="1.529946" fill="#E62B24" fill-rule="nonzero"></path>
                        <g transform="translate(1.697566, 10.133277)" fill="#FFFFFF">
                            <path d="M1.50238337,9.58845759 L1.50238337,7.14930014 C2.07076343,7.69981413 2.48351943,7.88231286 3.20552384,7.88231286 C4.76382619,7.88231286 5.99915164,6.51874948 5.99915164,4.80035635 C5.99915164,3.08300156 4.78551201,1.76511286 3.21834053,1.76511286 C2.45003228,1.76511286 1.83735842,2.06315654 1.39213066,2.63598802 L1.39213066,1.95976004 L0.166700066,1.95976004 L0.166700066,9.58845759 L1.50238337,9.58845759 Z M3.05089447,3.02621546 C3.94134999,3.02621546 4.66336477,3.82618865 4.66336477,4.82371352 C4.66336477,5.81926696 3.94134999,6.62214464 3.03808813,6.62214464 C2.13683632,6.62214464 1.41381652,5.83141275 1.41381652,4.82371352 C1.41381652,3.81601428 2.13683631,3.02621546 3.05089447,3.02621546 Z" id="Shape"></path>
                            <rect id="Rectangle" x="6.32908086" y="0.0477580658" width="1.33568531" height="7.63887058"></rect>
                            <path d="M11.8422959,4.89264407 C11.8422959,6.02709697 11.4423566,6.62214464 10.6858497,6.62214464 C9.93922722,6.62214464 9.54917243,6.03820573 9.54917243,4.89264407 L9.54917243,1.95976004 L8.21348914,1.95976004 L8.21348914,5.31640306 C8.21348914,6.26731754 8.4026107,6.78232589 8.90492824,7.26286964 C9.33836505,7.66430982 9.90574006,7.88231286 10.5066022,7.88231286 C11.1527632,7.88231286 11.5192154,7.68662864 11.9546623,7.11587255 L11.9546623,7.68662864 L13.1779792,7.68662864 L13.1779792,1.95976004 L11.8422959,1.95976004 L11.8422959,4.89264407 L11.8422959,4.89264407 Z" id="Path"></path>
                            <path d="M13.3178751,5.88819752 C13.3631739,6.35856824 13.4065455,6.5410683 13.5404941,6.81679184 C13.8507579,7.44734381 14.5530969,7.88231286 15.3106192,7.88231286 C16.4345834,7.88231286 17.3476261,6.97697308 17.3476261,5.87802315 C17.3476261,5.36104204 17.1801904,4.96157462 16.8246382,4.65242484 C16.6020191,4.45673929 16.2897349,4.31887819 15.7992187,4.15869693 L15.4219702,4.03401866 C14.9885438,3.8839078 14.8545952,3.76940255 14.8545952,3.50675921 C14.8545952,3.23103569 15.0772039,3.02621546 15.3667973,3.02621546 C15.6445893,3.02621546 15.8327058,3.19760943 15.8887906,3.51797194 L17.2018763,3.51797194 C17.1565878,2.52138013 16.3665937,1.76511286 15.3775935,1.76511286 C14.3413778,1.76511286 13.5188083,2.55480771 13.5188083,3.54029076 C13.5188083,4.03401868 13.6863476,4.44459351 14.019209,4.75582134 C14.3088024,5.01836072 14.4309497,5.07618384 15.0643976,5.29304589 C15.812025,5.54551487 16.0129583,5.70569613 16.0129583,6.03820575 C16.0129583,6.36977965 15.755847,6.62214466 15.4091639,6.62214466 C15.0220309,6.62214466 14.8092031,6.40424425 14.6772646,5.88819754 L13.3178751,5.88819754 L13.3178751,5.88819752 Z" id="Path"></path>
                        </g>
                    </g>
                    <path d="M17.0917158,22.9730099 C18.3051543,22.9730099 19.2452428,23.9523917 19.2452428,25.20496 C19.2452428,26.477765 18.3051543,27.4631 17.0777197,27.4631 C15.8560067,27.4631 14.8824977,26.477765 14.8824977,25.20496 C14.8824977,23.9523917 15.8560067,22.9730099 17.0777197,22.9730099 L17.0917158,22.9730099 Z M17.0640169,23.3652319 C16.09309,23.3652319 15.3566938,24.1934351 15.3566938,25.20496 C15.3566938,26.2423692 16.09309,27.0533163 17.0917158,27.0533163 C18.0486466,27.0675996 18.7682005,26.2423692 18.7682005,25.2195414 C18.7682005,24.1934351 18.0486466,23.3652319 17.0777196,23.3652319 L17.0640169,23.3652319 Z M16.6872363,26.4369937 L16.2687606,26.4369937 L16.2687606,24.0916636 C16.4975695,24.0511904 16.7429568,24.0250005 17.0500208,24.0250005 C17.4265081,24.0250005 17.6218965,24.0916636 17.7529966,24.2080241 C17.8812505,24.3011675 17.9789593,24.487164 17.9789593,24.7109513 C17.9789593,24.9898008 17.7807247,25.1787701 17.5521799,25.2573322 L17.5521799,25.2862045 C17.7333081,25.3733946 17.8478299,25.5507631 17.9092427,25.8617481 C17.9789593,26.2105317 18.0289287,26.3527764 18.0877888,26.4369937 L17.655317,26.4369937 C17.5939042,26.3527764 17.5353375,26.1435705 17.4739247,25.8355583 C17.4182336,25.5653444 17.2702619,25.4576196 16.9551875,25.4576196 L16.6872363,25.4576196 L16.6872363,26.4369937 L16.6872363,26.4369937 Z M16.6872363,25.1207427 L16.9717657,25.1207427 C17.2702619,25.1207427 17.5521798,25.0189635 17.5521798,24.754405 C17.5521798,24.5335905 17.3985158,24.3621754 17.0137541,24.3621754 C16.8463579,24.3621754 16.7486491,24.3737839 16.6872363,24.3910401 L16.6872363,25.1207427 L16.6872363,25.1207427 Z" id="Shape" fill="#372F2D" fill-rule="nonzero"></path>
                </g>
            </g>
        </g>
    </g>
</svg>